<?xml version="1.0"?>
<svg xmlns="http://www.w3.org/2000/svg" xmlns:xlink="http://www.w3.org/1999/xlink" version="1.1" id="Layer_1" x="0px" y="0px" viewBox="0 0 512.001 512.001" style="enable-background:new 0 0 512.001 512.001;" xml:space="preserve" width="512px" height="512px" class=""><g><path style="fill:#FF6F52;" d="M461.685,383.054v83.397c0,20.193-16.369,36.562-36.562,36.562H84.154  c-30.475,0-55.182-24.706-55.182-55.196V175.48c0-30.49,24.706-55.196,55.182-55.196h340.969c20.193,0,36.562,16.369,36.562,36.562  v83.397" data-original="#FF6F52" class=""/><path style="fill:#E25749;" d="M69.71,447.818V175.48c0-30.49,24.706-55.196,55.182-55.196H84.154  c-30.475,0-55.182,24.706-55.182,55.196v272.337c0,30.49,24.706,55.196,55.182,55.196h40.738  C94.416,503.013,69.71,478.308,69.71,447.818z" data-original="#E25749" class=""/><polyline style="fill:#CFDCE5;" points="134.024,120.285 245.324,8.986 356.622,120.285 " data-original="#CFDCE5"/><path style="fill:#FF6F52;" d="M337.536,383.054h127.823c10.448,0,18.918-8.47,18.918-18.918V259.163  c0-10.448-8.47-18.918-18.918-18.918H337.536c-10.448,0-18.918,8.47-18.918,18.918v104.973  C318.618,374.584,327.088,383.054,337.536,383.054z" data-original="#FF6F52" class=""/><circle style="fill:#000000" cx="382.253" cy="311.656" r="24.533" data-original="#FCD577" class="active-path" data-old_color="#FCD577"/><path d="M154.27,494.027H83.53c-25.472,0-46.195-20.73-46.195-46.21V175.48c0-25.48,20.724-46.21,46.195-46.21h340.968  c15.205,0,27.576,12.37,27.576,27.576v56.151c0,4.963,4.022,8.986,8.986,8.986c4.964,0,8.986-4.023,8.986-8.986v-56.151  c0-25.116-20.434-45.548-45.548-45.548H155.095l89.604-89.604l81.888,81.888c3.511,3.509,9.2,3.509,12.709,0s3.509-9.2,0-12.708  L251.053,2.632c-3.509-3.509-9.2-3.509-12.708,0L129.679,111.299H83.53c-35.382,0-64.168,28.792-64.168,64.182v272.337  c0,35.39,28.786,64.182,64.168,64.182h70.74c4.963,0,8.986-4.023,8.986-8.986S159.233,494.027,154.27,494.027z" data-original="#000000" class="" style="fill:#F6D142" data-old_color="#000000"/><path d="M464.735,231.259H336.913c-15.387,0-27.904,12.518-27.904,27.904v104.974c0,15.387,12.517,27.904,27.904,27.904h115.161  v74.411c0,15.205-12.37,27.576-27.576,27.576H190.213c-4.963,0-8.986,4.023-8.986,8.986s4.023,8.986,8.986,8.986h234.286  c25.115,0,45.548-20.432,45.548-45.548v-74.925c12.854-2.487,22.593-13.821,22.593-27.391V259.162  C492.639,243.776,480.122,231.259,464.735,231.259z M474.667,364.136c0,5.477-4.456,9.932-9.932,9.932H336.913  c-5.476,0-9.932-4.456-9.932-9.932V259.162c0-5.477,4.456-9.932,9.932-9.932h127.822c5.476,0,9.932,4.456,9.932,9.932V364.136z" data-original="#000000" class="" style="fill:#F6D142" data-old_color="#000000"/><path d="M406.155,302.664c-4.964,0-8.986,4.023-8.986,8.986c0,8.572-6.973,15.546-15.546,15.546s-15.546-6.973-15.546-15.546  c0-8.573,6.973-15.546,15.546-15.546c4.964,0,8.986-4.023,8.986-8.986c0-4.963-4.022-8.986-8.986-8.986  c-18.482,0-33.519,15.037-33.519,33.519c0,18.482,15.037,33.519,33.519,33.519s33.519-15.036,33.519-33.519  C415.142,306.687,411.118,302.664,406.155,302.664z" data-original="#000000" class="" style="fill:#F6D142" data-old_color="#000000"/></g> </svg>
