<?xml version="1.0"?>
<svg xmlns="http://www.w3.org/2000/svg" height="512px" viewBox="0 0 496.336 496" width="512px" class=""><g><path d="m274.671875 314.511719 40-39.996094 11.3125 11.3125-39.996094 40zm0 0" data-original="#000000" class="active-path" style="fill:#F6D142" data-old_color="#000000"/><path d="m485.703125 434.230469-18.0625-18.0625h28.359375v-352h-416v-64h-40c-22.054688 0-40 17.945312-40 40v336c0 22.054687 17.945312 40 40 40h325.015625l69.375 69.375c6.847656 6.847656 15.960937 10.625 25.65625 10.625 20.007813 0 36.289063-16.273438 36.289063-36.28125 0-9.6875-3.777344-18.796875-10.632813-25.65625zm-35.144531-12.519531-28.6875 28.6875-134.421875-134.4375-11.714844-40.144532 40.417969 11.480469zm-434.558594-381.542969c0-13.230469 10.769531-24 24-24h24v320h-24c-9 0-17.3125 2.984375-24 8.015625zm24 360c-13.230469 0-24-10.769531-24-24s10.769531-24 24-24h40v-272h400v320h-28.359375l-127.121094-127.128907-72.253906-20.519531 20.957031 71.855469 75.792969 75.792969zm420.046875 80c-5.421875 0-10.511719-2.113281-14.34375-5.9375l-12.519531-12.519531 28.6875-28.6875 12.519531 12.519531c3.832031 3.832031 5.945313 8.929687 5.945313 14.34375 0 11.175781-9.105469 20.28125-20.289063 20.28125zm0 0" data-original="#000000" class="active-path" style="fill:#F6D142" data-old_color="#000000"/><path d="m328 112.167969h44.265625v16h-44.265625zm0 0" data-original="#000000" class="active-path" style="fill:#F6D142" data-old_color="#000000"/><path d="m400 240.167969h-128v-72h16v56h96v-26.761719h16zm0 0" data-original="#000000" class="active-path" style="fill:#F6D142" data-old_color="#000000"/><path d="m120 368.167969h16v16h-16zm0 0" data-original="#000000" class="active-path" style="fill:#F6D142" data-old_color="#000000"/><path d="m152 368.167969h112v16h-112zm0 0" data-original="#000000" class="active-path" style="fill:#F6D142" data-old_color="#000000"/><path d="m96 363.480469v-267.3125h267.3125zm40-227.3125v128l128-128zm0 0" fill="#f0bc5e" data-original="#F0BC5E" class="" style="fill:#FFFFFF" data-old_color="#f0bc5e"/><path d="m128 286.222656v-158.054687h158.054688zm16-142.054687v103.433593l103.433594-103.433593zm0 0" data-original="#000000" class="active-path" style="fill:#F6D142" data-old_color="#000000"/><path d="m408 208.167969c-30.871094 0-56-25.128907-56-56 0-30.871094 25.128906-56 56-56s56 25.128906 56 56c0 30.871093-25.128906 56-56 56zm0-80c-13.230469 0-24 10.769531-24 24s10.769531 24 24 24 24-10.769531 24-24-10.769531-24-24-24zm0 0" fill="#f0bc5e" data-original="#F0BC5E" class="" style="fill:#FFFFFF" data-old_color="#f0bc5e"/><path d="m408 184.167969c-17.648438 0-32-14.351563-32-32 0-17.648438 14.351562-32 32-32s32 14.351562 32 32c0 17.648437-14.351562 32-32 32zm0-48c-8.824219 0-16 7.175781-16 16s7.175781 16 16 16 16-7.175781 16-16-7.175781-16-16-16zm0 0" data-original="#000000" class="active-path" style="fill:#F6D142" data-old_color="#000000"/></g> </svg>
