<?xml version="1.0"?>
<svg xmlns="http://www.w3.org/2000/svg" xmlns:xlink="http://www.w3.org/1999/xlink" version="1.1" id="Layer_1" x="0px" y="0px" viewBox="0 0 511.999 511.999" style="enable-background:new 0 0 511.999 511.999;" xml:space="preserve" width="512px" height="512px" class="hovered-paths"><g><polygon style="fill:#000000" points="333.945,204.53 333.442,205.033 333.442,367.375 171.112,367.375 171.112,205.033   170.609,204.53 252.277,122.874 " data-original="#CFDCE5" class="hovered-path active-path" data-old_color="#CFDCE5"/><polyline style="fill:#FF6F52;" points="325.066,195.662 325.066,130.064 287.33,130.064 287.33,157.926 " data-original="#FF6F52" class=""/><rect x="225.771" y="235.202" style="fill:#000000" width="53.015" height="74.61" data-original="#FCD577" class="" data-old_color="#FCD577"/><path d="M407.473,80.28c-3.76-3.244-9.433-2.823-12.676,0.934c-3.243,3.758-2.825,9.435,0.934,12.676  c47.21,40.73,74.286,99.816,74.286,162.11c0,97.739-66.021,182.978-160.551,207.286c-4.808,1.237-7.703,6.136-6.466,10.942  c1.044,4.056,4.694,6.752,8.698,6.752c0.741,0,1.494-0.092,2.245-0.285C416.418,454.342,487.99,361.945,487.99,255.999  C487.991,188.474,458.643,124.427,407.473,80.28z" data-original="#000000" class="" style="fill:#F6D142" data-old_color="#000000"/><path d="M247.696,39.77l33.528,29.243c1.703,1.486,3.808,2.215,5.904,2.215c2.506,0,5-1.043,6.777-3.08  c3.263-3.741,2.875-9.418-0.866-12.681l-14.034-12.242c31.812,3.417,62.452,13.888,89.704,30.806  c1.475,0.917,3.113,1.353,4.731,1.353c3.005,0,5.943-1.508,7.644-4.248c2.618-4.217,1.322-9.758-2.896-12.377  c-29.247-18.155-62.084-29.466-96.186-33.29l13.906-8.913c4.179-2.678,5.395-8.239,2.717-12.417  c-2.678-4.179-8.238-5.395-12.417-2.717L248.753,25.43c-2.381,1.527-3.905,4.085-4.113,6.906  C244.431,35.157,245.564,37.911,247.696,39.77z" data-original="#000000" class="" style="fill:#F6D142" data-old_color="#000000"/><path d="M264.304,472.231l-33.528-29.243c-3.741-3.264-9.418-2.876-12.681,0.865c-3.263,3.74-2.875,9.418,0.865,12.681  l14.038,12.244C125.767,457.266,41.984,366.238,41.984,255.999c0-48.605,15.878-94.415,45.92-132.478  c29.145-36.929,70.164-63.575,115.499-75.029c4.813-1.216,7.728-6.103,6.512-10.916c-1.216-4.813-6.098-7.727-10.916-6.512  c-49.154,12.42-93.619,41.299-125.204,81.32c-32.57,41.268-49.784,90.928-49.784,143.615c0,119.132,90.267,217.563,205.995,230.527  l-13.913,8.917c-4.179,2.678-5.395,8.239-2.717,12.417c1.717,2.677,4.615,4.139,7.576,4.139c1.66,0,3.34-0.46,4.841-1.422  l37.455-24.008c2.381-1.527,3.905-4.085,4.113-6.906C267.568,476.844,266.436,474.091,264.304,472.231z" data-original="#000000" class="" style="fill:#F6D142" data-old_color="#000000"/><path d="M170.483,309.205c-4.964,0-8.988,4.024-8.988,8.988v49.176c0,4.964,4.024,8.988,8.988,8.988h162.334  c4.964,0,8.988-4.024,8.988-8.988V225.735l18.277,18.277c1.754,1.754,4.055,2.633,6.355,2.633s4.6-0.877,6.355-2.633  c3.51-3.51,3.51-9.201,0-12.71l-39.364-39.364v-61.874c0-4.964-4.024-8.988-8.988-8.988h-37.736c-4.964,0-8.988,4.024-8.988,8.988  v6.163l-19.713-19.713c-3.51-3.51-9.201-3.51-12.71,0L130.506,231.304c-3.51,3.51-3.51,9.201,0,12.71c3.51,3.51,9.201,3.51,12.71,0  l18.277-18.277v62.5c0,4.964,4.024,8.988,8.988,8.988c4.964,0,8.988-4.024,8.988-8.988V207.76l72.179-72.179l72.179,72.179v150.623  H179.471v-40.188C179.471,313.229,175.448,309.205,170.483,309.205z M295.693,139.052h19.761v34.911l-19.761-19.761L295.693,139.052  L295.693,139.052z" data-original="#000000" class="" style="fill:#F6D142" data-old_color="#000000"/><path d="M278.158,318.791c4.964,0,8.988-4.024,8.988-8.988v-74.606c0-4.964-4.024-8.988-8.988-8.988h-53.013  c-4.964,0-8.988,4.024-8.988,8.988v74.606c0,4.964,4.024,8.988,8.988,8.988H278.158z M234.132,244.186h35.038v56.631h-35.038  V244.186z" data-original="#000000" class="" style="fill:#F6D142" data-old_color="#000000"/></g> </svg>
