<?xml version="1.0"?>
<svg xmlns="http://www.w3.org/2000/svg" height="512px" viewBox="0 -21 442.2041 442" width="512px"><g><path d="m261.105469 88.101562c0 22.09375-17.910157 40-40 40-22.09375 0-40-17.90625-40-40 0-22.089843 17.90625-40 40-40 22.089843 0 40 17.910157 40 40zm0 0" data-original="#000000" class="active-path" data-old_color="#000000" fill="#F6D142"/><path d="m442.105469 390.800781-34.703125-208c-.398438-2.597656-2.097656-4.699219-4.296875-5.898437-1.101563-.5-2.300781-.800782-3.5-.800782h-112.601563c-18.300781 27.101563-38.300781 52.902344-59.898437 77.300782-3 3.300781-8 3.601562-11.300781.601562-.199219-.203125-.402344-.402344-.601563-.601562-21.597656-24.5-41.699219-50.300782-59.898437-77.300782h-112.699219c-3.902344 0-7.203125 2.800782-7.902344 6.699219l-34.597656 208c-.703125 4.402344 2.199219 8.5 6.597656 9.203125.402344.097656.902344.097656 1.300781.097656h426.199219c4.402344 0 8-3.597656 8-8 0-.398437 0-.898437-.097656-1.300781zm-197-118.699219h16v16h-16zm-40 0h32v16h-32zm-24 0h16v16h-16zm0 0" data-original="#000000" class="active-path" data-old_color="#000000" fill="#F6D142"/><path d="m221.105469 236.003906c18.597656-21.601562 36-44.300781 52-67.902344 19.699219-29.398437 36-59.898437 36-80 0-48.597656-39.402344-88-88-88-48.601563 0-88 39.402344-88 88 0 20.101563 16.296875 50.601563 36 80 16 23.601563 33.398437 46.300782 52 67.902344zm-56-147.902344c0-30.898437 25.097656-56 56-56 30.898437 0 56 25.101563 56 56 0 30.902344-25.101563 56-56 56-30.902344 0-56-25.097656-56-56zm0 0" data-original="#000000" class="active-path" data-old_color="#000000" fill="#F6D142"/><path d="m399.605469 176.101562c1.296875 0 2.5.300782 3.5.800782v-.800782zm0 0" data-original="#000000" class="active-path" data-old_color="#000000" fill="#F6D142"/></g> </svg>
