<?xml version="1.0"?>
<svg xmlns="http://www.w3.org/2000/svg" xmlns:xlink="http://www.w3.org/1999/xlink" version="1.1" id="Layer_1" x="0px" y="0px" viewBox="0 0 512 512" style="enable-background:new 0 0 512 512;" xml:space="preserve" width="512px" height="512px" class=""><g><path style="fill:#000000" d="M309.398,309.536l-105.28-105.28L9.672,9.81v492.38h492.367L309.398,309.536z M84.228,189.802  l237.828,237.832H84.228V189.802z" data-original="#8DE0A8" class="active-path" data-old_color="#8DE0A8"/><path style="fill:#4EBFED;" d="M168.823,402.679l-93.899,34.247l34.247-93.899L397.084,55.114c10.221-10.221,26.792-10.221,37.012,0  l22.64,22.64c10.221,10.221,10.221,26.792,0,37.012L168.823,402.679z" data-original="#4EBFED" class=""/><path style="fill:#FF6F52;" d="M366.729,85.474l30.355-30.355c10.221-10.221,26.794-10.221,37.014,0l22.641,22.641  c10.221,10.221,10.21,26.785-0.009,37.004l-30.355,30.355L366.729,85.474z" data-original="#FF6F52" class=""/><rect x="253.682" y="55.72" transform="matrix(0.7071 0.7071 -0.7071 0.7071 244.776 -115.2686)" style="fill:#97E1F7" width="15.694" height="364.233" data-original="#97E1F7" class=""/><path style="fill:#3BA4BC;" d="M456.736,114.767c10.221-10.221,10.221-26.792,0-37.012l-5.644-5.644  c5.125,5.125,0.994,17.565-9.227,27.786L153.954,387.808l-79.03,49.118l93.899-34.247L456.736,114.767z" data-original="#3BA4BC" class=""/><polygon style="fill:#FCD577;" points="109.175,343.028 168.821,402.674 74.927,436.931 " data-original="#FCD577" class=""/><g>
	<path style="fill:#E25749;" d="M451.088,72.109l5.651,5.651c10.221,10.221,10.21,26.785-0.009,37.004l-30.355,30.355   l-14.863-14.863l30.355-30.355C452.087,89.682,456.211,77.233,451.088,72.109z" data-original="#E25749" class=""/>
	<polygon style="fill:#E25749;" points="153.958,387.811 168.821,402.674 74.927,436.931  " data-original="#E25749" class=""/>
</g><path d="M100.099,339.665l-34.248,93.899c-1.308,3.584-0.419,7.601,2.28,10.298c1.873,1.873,4.38,2.874,6.938,2.874  c1.127,0,2.264-0.195,3.36-0.594l93.901-34.247c1.343-0.491,2.564-1.267,3.575-2.28l287.912-287.912  c14.03-14.03,14.03-36.857,0-50.885l-22.641-22.64c-6.796-6.796-15.832-10.538-25.443-10.538c-9.611,0-18.647,3.742-25.443,10.538  l-79.373,79.373c-3.831,3.831-3.831,10.043,0,13.873c3.831,3.831,10.043,3.831,13.873,0l42.078-42.079l45.78,45.78L168.967,388.805  l-45.78-45.78l178.481-178.481c3.831-3.831,3.831-10.041,0-13.873c-3.831-3.831-10.043-3.831-13.873,0L102.379,336.089  C101.366,337.102,100.589,338.322,100.099,339.665z M113.259,360.843l37.891,37.891l-59.646,21.754L113.259,360.843z   M380.743,85.472l23.421-23.421c3.091-3.091,7.199-4.792,11.569-4.792s8.478,1.702,11.569,4.792l22.641,22.64  c3.091,3.091,4.792,7.199,4.792,11.569s-1.702,8.478-4.792,11.569l-23.421,23.421L380.743,85.472z" data-original="#000000" class="" style="fill:#F6D142" data-old_color="#000000"/><path d="M509.121,495.253L316.48,302.599c-3.831-3.831-10.043-3.831-13.874,0c-3.831,3.831-3.831,10.041,0,13.874L478.501,492.38  h-59.002v-9.247c0-5.418-4.392-9.81-9.81-9.81c-5.418,0-9.81,4.392-9.81,9.81v9.247h-38.15v-9.247c0-5.418-4.392-9.81-9.81-9.81  s-9.81,4.392-9.81,9.81v9.247h-38.15v-9.247c0-5.418-4.392-9.81-9.81-9.81s-9.81,4.392-9.81,9.81v9.247H246.19v-9.247  c0-5.418-4.392-9.81-9.81-9.81s-9.81,4.392-9.81,9.81v9.247h-38.15v-9.247c0-5.418-4.392-9.81-9.81-9.81s-9.81,4.392-9.81,9.81  v9.247h-38.149v-9.247c0-5.418-4.392-9.81-9.81-9.81c-5.418,0-9.81,4.392-9.81,9.81v9.247h-38.15v-9.247  c0-5.418-4.392-9.81-9.81-9.81s-9.81,4.392-9.81,9.81v9.247H19.626V33.493l177.7,177.7c3.831,3.831,10.043,3.831,13.873,0  c3.831-3.831,3.831-10.041,0-13.873L16.752,2.873c-2.804-2.806-7.025-3.644-10.69-2.127C2.396,2.265,0.006,5.842,0.006,9.81v492.38  c0,5.418,4.392,9.81,9.81,9.81h492.367c3.967,0,7.544-2.39,9.063-6.056C512.765,502.279,511.925,498.059,509.121,495.253z" data-original="#000000" class="" style="fill:#F6D142" data-old_color="#000000"/><path d="M94.182,324.865V213.485l50.419,50.419c3.831,3.831,10.043,3.831,13.873,0c3.831-3.831,3.831-10.041,0-13.873  l-67.165-67.165c-2.807-2.807-7.025-3.644-10.69-2.127c-3.666,1.519-6.056,5.096-6.056,9.063v135.063c0,5.418,4.392,9.81,9.81,9.81  C89.789,334.675,94.182,330.283,94.182,324.865z" data-original="#000000" class="" style="fill:#F6D142" data-old_color="#000000"/><path d="M169.3,427.634c0,5.418,4.392,9.81,9.81,9.81h143.081c3.968,0,7.544-2.39,9.063-6.056c1.519-3.665,0.679-7.885-2.127-10.69  l-65.373-65.373c-3.831-3.831-10.043-3.831-13.873,0c-3.831,3.831-3.831,10.041,0,13.873l48.627,48.627H179.111  C173.692,417.824,169.3,422.216,169.3,427.634z" data-original="#000000" class="" style="fill:#F6D142" data-old_color="#000000"/></g> </svg>
