<?xml version="1.0"?>
<svg xmlns="http://www.w3.org/2000/svg" xmlns:xlink="http://www.w3.org/1999/xlink" version="1.1" id="Layer_1" x="0px" y="0px" viewBox="0 0 512.001 512.001" style="enable-background:new 0 0 512.001 512.001;" xml:space="preserve" width="512px" height="512px" class=""><g><g>
	<polygon style="fill:#000000" points="66.882,54.94 38.104,8.721 9.327,54.94  " data-original="#FF6F52" class="active-path" data-old_color="#FF6F52"/>
	<polygon style="fill:#000000" points="9.327,357.149 38.104,403.366 66.882,357.149  " data-original="#FF6F52" class="active-path" data-old_color="#FF6F52"/>
	<polygon style="fill:#000000" points="457.667,503.278 503.884,474.502 457.667,445.725  " data-original="#FF6F52" class="active-path" data-old_color="#FF6F52"/>
	<polygon style="fill:#000000" points="155.458,503.278 109.239,474.502 155.458,445.725  " data-original="#FF6F52" class="active-path" data-old_color="#FF6F52"/>
</g><polyline style="fill:#000000" points="503.884,36.176 503.884,8.721 109.239,8.721 109.239,403.366 503.884,403.366   503.884,65.245 " data-original="#CFDCE5" class="" data-old_color="#CFDCE5"/><path d="M503.28,44.897c4.817,0,8.721-3.905,8.721-8.721V8.721c0-4.816-3.903-8.721-8.721-8.721H108.633  c-4.816,0-8.721,3.905-8.721,8.721v394.645c0,4.816,3.905,8.721,8.721,8.721h394.645c4.817,0,8.721-3.905,8.721-8.721V65.245  c0-4.816-3.903-8.721-8.721-8.721c-4.817,0-8.721,3.905-8.721,8.721v149.416h-34.634c-4.817,0-8.721,3.905-8.721,8.721  s3.903,8.721,8.721,8.721h34.634v162.543H245.393v-42.197c0-4.816-3.905-8.721-8.721-8.721s-8.721,3.905-8.721,8.721v42.197H117.354  V17.442h110.598v272.218c0,4.816,3.905,8.721,8.721,8.721s8.721-3.905,8.721-8.721v-57.557h155.229c4.817,0,8.721-3.905,8.721-8.721  s-3.903-8.721-8.721-8.721H245.393V17.442h249.166v18.734C494.559,40.992,498.462,44.897,503.28,44.897z" data-original="#000000" class="" style="fill:#F6D142" data-old_color="#000000"/><path d="M44.902,4.112C43.31,1.555,40.51,0,37.499,0s-5.812,1.555-7.403,4.112L1.318,50.331c-1.674,2.689-1.759,6.074-0.221,8.843  c1.538,2.769,4.457,4.487,7.624,4.487h20.057v36.468c0,4.816,3.905,8.721,8.721,8.721s8.721-3.905,8.721-8.721V63.661h20.057  c3.167,0,6.086-1.717,7.624-4.487c1.538-2.77,1.453-6.155-0.221-8.843L44.902,4.112z M24.424,46.219l13.074-20.998l13.074,20.998  H24.424z" data-original="#000000" class="" style="fill:#F6D142" data-old_color="#000000"/><path d="M66.276,348.428H46.219V123.384c0-4.816-3.905-8.721-8.721-8.721s-8.721,3.905-8.721,8.721v225.043H8.721  c-3.167,0-6.086,1.717-7.624,4.487c-1.538,2.77-1.453,6.155,0.221,8.843l28.777,46.219c1.592,2.557,4.391,4.112,7.403,4.112  s5.812-1.555,7.403-4.112l28.777-46.219c1.674-2.689,1.759-6.074,0.221-8.843C72.362,350.145,69.443,348.428,66.276,348.428z   M37.499,386.868L24.424,365.87h26.148L37.499,386.868z" data-original="#000000" class="" style="fill:#F6D142" data-old_color="#000000"/><path d="M507.889,467.099l-46.219-28.777c-2.689-1.674-6.074-1.758-8.843-0.221c-2.769,1.538-4.486,4.457-4.486,7.624v20.057  H163.573v-20.057c0-3.167-1.717-6.086-4.486-7.624c-2.769-1.537-6.153-1.453-8.844,0.221l-46.219,28.777  c-2.557,1.592-4.112,4.391-4.112,7.403s1.555,5.811,4.112,7.403l46.219,28.777c1.408,0.877,3.008,1.317,4.609,1.317  c1.457,0,2.915-0.364,4.234-1.096c2.77-1.538,4.487-4.457,4.487-7.624v-20.057H448.34v20.057c0,3.167,1.719,6.086,4.486,7.624  c1.32,0.733,2.778,1.096,4.235,1.096c1.601,0,3.201-0.441,4.609-1.317l46.219-28.777c2.557-1.592,4.112-4.391,4.112-7.403  C512.001,471.489,510.446,468.691,507.889,467.099z M146.131,487.576l-20.998-13.074l20.998-13.074V487.576z M465.782,487.576  v-26.148l21,13.074L465.782,487.576z" data-original="#000000" class="" style="fill:#F6D142" data-old_color="#000000"/></g> </svg>
